<!DOCTYPE svg PUBLIC "-//W3C//DTD SVG 20010904//EN" "http://www.w3.org/TR/2001/REC-SVG-20010904/DTD/svg10.dtd">
<svg version="1.0" xmlns="http://www.w3.org/2000/svg" width="255px" height="198px" viewBox="0 0 2550 1980" preserveAspectRatio="xMidYMid meet">
<g id="layer101" fill="#050504" stroke="none">
<path d="M871 1881 c-10 -6 -12 -23 -9 -60 5 -55 43 -114 84 -133 23 -11 24 -15 24 -120 l0 -109 -35 -35 -35 -35 0 -162 0 -162 -54 3 c-44 3 -58 0 -75 -17 -19 -19 -32 -21 -163 -21 -110 1 -148 4 -162 15 -29 22 -71 18 -102 -8 -27 -23 -27 -23 -63 -5 -69 37 -201 2 -201 -53 0 -16 8 -19 58 -20 59 0 143 -26 149 -45 7 -20 -66 -46 -133 -48 -35 -1 -66 -5 -70 -8 -15 -15 11 -51 49 -69 53 -24 103 -24 148 -1 36 18 36 18 63 -5 32 -27 56 -29 97 -7 23 12 63 15 170 16 130 0 141 -2 157 -21 23 -29 84 -38 115 -18 22 14 25 14 51 -14 15 -16 32 -29 37 -29 5 0 9 -81 9 -188 0 -182 1 -190 26 -239 51 -103 152 -167 264 -167 115 0 211 62 262 169 27 59 28 63 28 240 l0 180 38 31 c34 28 40 30 57 18 33 -25 84 -17 115 16 l28 30 134 0 c117 0 136 -3 158 -20 34 -26 73 -25 107 4 28 23 28 23 63 5 47 -25 106 -24 155 4 29 16 40 29 40 46 0 22 -4 24 -67 26 -69 3 -141 29 -135 49 6 18 98 45 155 46 45 0 52 3 52 19 0 55 -132 90 -201 53 -36 -18 -36 -18 -63 5 -31 26 -73 30 -102 8 -14 -11 -52 -14 -161 -15 -132 0 -145 2 -164 21 -17 17 -31 20 -75 17 l-54 -3 0 153 c0 170 -9 201 -62 225 l-28 12 0 105 0 105 35 28 c19 15 43 39 52 53 21 33 34 115 21 132 -16 19 -341 17 -358 -3 -18 -22 -6 -81 30 -138 29 -46 30 -53 30 -163 l0 -114 -95 0 -95 0 0 123 c0 109 2 126 19 141 29 26 43 68 39 117 l-3 44 -170 2 c-93 2 -176 -1 -184 -6z"/>
</g>
<g id="layer102" fill="#323333" stroke="none">
<path d="M930 1863 c-19 -2 -39 -8 -43 -12 -17 -17 13 -89 52 -124 70 -63 161 -58 224 12 34 37 58 104 43 118 -8 8 -227 13 -276 6z"/>
<path d="M1341 1863 c-21 -4 -23 -9 -18 -43 20 -152 235 -184 298 -46 33 72 28 82 -42 90 -67 7 -199 6 -238 -1z"/>
<path d="M1003 1644 c-19 -8 -16 -32 5 -42 15 -7 39 -8 110 -4 18 2 23 7 20 25 -3 20 -9 22 -63 24 -33 1 -66 -1 -72 -3z"/>
<path d="M1420 1630 c0 -12 8 -12 35 0 18 8 17 9 -7 9 -16 1 -28 -3 -28 -9z"/>
<path d="M1049 1568 c-5 -21 -4 -48 3 -48 5 0 8 -8 6 -17 -4 -22 41 -31 53 -11 7 11 11 10 19 -2 9 -13 10 -13 10 1 0 8 -8 24 -18 35 -10 10 -19 24 -20 29 -1 9 -51 21 -53 13z"/>
<path d="M1440 1552 c0 -5 -13 -24 -30 -42 -45 -51 -40 -60 33 -60 52 0 64 3 75 20 16 25 8 40 -21 41 -12 0 -16 3 -9 6 19 7 14 19 -13 31 -31 14 -35 15 -35 4z"/>
<path d="M953 1406 l-28 -24 0 -302 0 -302 28 -24 28 -24 288 0 288 0 26 24 c14 13 28 39 32 57 3 19 5 155 3 302 l-3 269 -28 24 -28 24 -289 0 -289 0 -28 -24z m583 -90 l34 -34 0 -126 c0 -136 -9 -170 -52 -200 -19 -13 -60 -16 -246 -16 -308 0 -301 -5 -302 208 l0 144 29 29 29 29 237 0 237 0 34 -34z m-528 -467 c4 -42 -22 -74 -39 -48 -20 31 -6 92 20 87 10 -2 17 -15 19 -39z m110 -3 c4 -46 -10 -65 -33 -46 -15 13 -21 71 -8 84 18 18 38 -1 41 -38z m118 18 c7 -28 -9 -74 -26 -74 -17 0 -33 46 -26 74 4 17 13 26 26 26 13 0 22 -9 26 -26z m112 -15 c2 -23 -2 -40 -12 -48 -19 -16 -36 -6 -35 22 0 21 1 21 10 -3 9 -23 11 -23 20 -7 6 10 9 27 7 39 -4 26 -28 37 -28 12 0 -9 -3 -15 -6 -11 -12 12 6 38 23 35 13 -2 19 -14 21 -39z m110 -3 c4 -46 -10 -65 -33 -46 -15 13 -21 71 -8 84 18 18 38 -1 41 -38z m118 18 c7 -28 -9 -74 -26 -74 -17 0 -33 46 -26 74 4 17 13 26 26 26 13 0 22 -9 26 -26z"/>
<path d="M1055 1333 c-11 -3 -30 -16 -42 -30 -21 -22 -23 -33 -23 -156 0 -128 1 -133 25 -160 l26 -27 224 0 c222 0 224 0 252 24 28 24 28 26 31 154 l4 131 -32 33 -32 33 -206 2 c-114 1 -216 -1 -227 -4z"/>
<path d="M790 1030 c-17 -17 -20 -33 -20 -118 0 -119 11 -142 70 -142 53 0 60 17 60 143 0 88 -3 106 -18 120 -25 23 -68 21 -92 -3z"/>
<path d="M1657 1032 c-14 -15 -17 -40 -17 -123 0 -126 8 -142 65 -137 56 4 66 29 63 151 -3 84 -6 101 -22 113 -27 19 -70 18 -89 -4z"/>
<path d="M355 1010 c-27 -29 -28 -164 -2 -197 54 -69 140 21 122 128 -13 79 -78 116 -120 69z"/>
<path d="M2091 1005 c-57 -73 -25 -215 49 -215 48 0 70 39 70 125 0 62 -3 74 -23 93 -32 30 -71 28 -96 -3z"/>
<path d="M143 1010 c-39 -16 -25 -27 40 -32 35 -3 78 -13 96 -22 18 -10 35 -15 39 -12 10 11 -20 53 -45 65 -28 13 -99 13 -130 1z"/>
<path d="M2249 989 c-29 -31 -41 -61 -16 -42 18 15 100 33 146 33 23 0 41 5 41 10 0 16 -46 30 -97 30 -37 0 -50 -5 -74 -31z"/>
<path d="M282 869 c-21 -14 -56 -23 -97 -27 -36 -2 -65 -8 -65 -12 0 -14 52 -30 95 -30 35 0 52 6 76 28 18 16 30 35 28 45 -4 15 -7 14 -37 -4z"/>
<path d="M2220 871 c0 -6 10 -22 23 -36 27 -32 100 -45 147 -25 44 18 37 27 -27 32 -32 2 -73 12 -92 21 -39 19 -51 21 -51 8z"/>
<path d="M1000 540 c0 -195 13 -249 77 -315 111 -114 282 -112 386 5 65 71 71 93 75 298 l4 182 -61 0 -61 0 0 -76 c0 -71 2 -77 30 -106 17 -16 30 -37 29 -46 0 -14 -2 -14 -6 -2 -9 24 -45 60 -60 60 -8 0 -25 -11 -38 -25 -19 -19 -25 -35 -25 -70 0 -69 23 -105 66 -105 28 0 44 21 61 78 13 45 13 45 9 8 -13 -99 -95 -131 -133 -51 -17 35 -17 35 -84 35 -65 0 -67 -1 -79 -30 -22 -53 -74 -66 -109 -29 -46 50 -31 166 23 191 25 11 26 15 26 90 l0 78 -65 0 -65 0 0 -170z"/>
<path d="M1140 625 c0 -69 3 -85 15 -85 9 0 15 9 15 25 l0 25 100 0 100 0 0 60 0 60 -115 0 -115 0 0 -85z"/>
<path d="M1183 543 c3 -21 9 -56 14 -78 l8 -40 60 -3 61 -3 17 53 c10 29 21 65 24 81 l5 27 -97 0 -97 0 5 -37z"/>
</g>
<g id="layer103" fill="#4a3225" stroke="none">
<path d="M974 866 c-8 -22 4 -68 16 -61 13 8 13 62 0 70 -6 3 -13 -1 -16 -9z"/>
<path d="M1084 866 c-8 -21 -1 -49 14 -54 8 -2 12 8 12 32 0 36 -16 49 -26 22z"/>
<path d="M1308 863 c-3 -11 -1 -30 4 -43 8 -23 10 -23 19 -7 13 21 8 59 -7 64 -6 2 -14 -4 -16 -14z"/>
<path d="M1425 867 c-9 -22 -2 -62 10 -60 6 1 11 14 13 29 4 32 -14 56 -23 31z"/>
<path d="M1195 861 c-3 -10 -2 -28 3 -40 7 -20 9 -21 21 -7 8 9 11 26 7 41 -8 29 -22 33 -31 6z"/>
<path d="M1537 873 c-11 -10 -8 -51 4 -59 18 -10 32 13 25 40 -6 26 -16 32 -29 19z"/>
<path d="M1002 528 c3 -160 6 -189 24 -228 82 -177 309 -213 437 -70 65 71 71 93 75 298 l4 182 -61 0 -61 0 0 -76 c0 -72 2 -78 30 -104 17 -15 30 -36 29 -47 0 -14 -2 -14 -6 -3 -9 24 -45 60 -60 60 -8 0 -25 -11 -38 -25 -19 -19 -25 -35 -25 -70 0 -69 23 -105 66 -105 28 0 44 21 61 78 13 47 13 47 8 7 -2 -22 -13 -51 -23 -65 -36 -47 -102 -33 -116 26 -6 22 -11 24 -75 24 -67 0 -69 -1 -81 -30 -22 -53 -74 -66 -109 -29 -46 50 -31 166 23 191 25 11 26 15 26 90 l0 78 -66 0 -66 0 4 -182z"/>
<path d="M1089 514 c-47 -50 -22 -174 36 -174 62 0 91 125 40 175 -31 32 -46 31 -76 -1z"/>
</g>
<g id="layer104" fill="#2e5555" stroke="none">
<path d="M1054 1331 c-12 -5 -31 -22 -43 -37 -19 -24 -21 -39 -21 -150 0 -111 2 -126 20 -144 11 -11 17 -20 13 -21 -5 0 1 -4 12 -9 11 -5 117 -9 236 -9 196 -1 218 1 237 17 33 29 42 65 42 167 0 101 -9 139 -43 170 -20 19 -37 20 -227 22 -113 1 -215 -2 -226 -6z m176 -188 c0 -80 -2 -144 -5 -141 -3 3 -6 47 -6 99 -1 149 1 189 6 189 3 0 5 -66 5 -147z"/>
<path d="M1002 528 c3 -160 6 -189 24 -228 82 -177 309 -213 437 -70 65 71 71 93 75 298 l4 182 -61 0 -61 0 0 -79 c0 -73 2 -80 25 -95 28 -19 49 -84 40 -126 -21 -94 -113 -108 -139 -22 -7 20 -14 22 -75 22 -67 0 -69 -1 -81 -30 -22 -53 -74 -66 -109 -29 -46 50 -31 166 23 191 25 11 26 15 26 90 l0 78 -66 0 -66 0 4 -182z"/>
</g>
<g id="layer105" fill="#c31610" stroke="none">
<path d="M974 856 c-7 -28 2 -49 17 -41 12 8 12 52 -1 60 -5 3 -12 -5 -16 -19z"/>
<path d="M1084 856 c-6 -26 1 -46 17 -46 12 0 12 57 -1 65 -5 3 -12 -5 -16 -19z"/>
<path d="M1317 874 c-4 -4 -7 -20 -7 -36 0 -35 23 -34 28 1 4 25 -10 46 -21 35z"/>
<path d="M1424 867 c-7 -20 -2 -47 11 -50 14 -3 19 43 6 56 -7 7 -12 6 -17 -6z"/>
<path d="M1199 865 c-3 -46 7 -68 21 -45 13 20 12 23 -5 46 -14 19 -14 19 -16 -1z"/>
<path d="M1540 848 c0 -40 14 -51 23 -18 3 10 -1 27 -9 37 -12 16 -13 14 -14 -19z"/>
</g>
<g id="layer106" fill="#555555" stroke="none">
<path d="M950 1863 c-30 -2 -58 -7 -62 -11 -11 -11 9 -76 33 -106 61 -77 187 -77 248 0 22 27 48 100 39 109 -7 7 -196 13 -258 8z"/>
<path d="M1358 1863 c-45 -5 -49 -24 -18 -87 26 -55 76 -88 132 -88 58 0 89 14 125 55 25 29 52 101 41 112 -6 6 -242 13 -280 8z"/>
<path d="M1393 1475 c-20 -23 -16 -25 41 -25 49 0 55 2 53 20 -1 17 -8 20 -42 20 -22 -1 -46 -7 -52 -15z"/>
<path d="M967 1419 c-41 -24 -47 -65 -47 -337 0 -164 4 -271 11 -291 20 -58 38 -61 343 -61 l276 0 32 29 33 29 3 269 c2 177 0 281 -8 305 -19 66 -32 68 -347 68 -179 0 -285 -4 -296 -11z m525 -69 c65 -18 78 -54 78 -210 l0 -132 -34 -34 -34 -34 -231 0 c-201 0 -235 2 -258 17 -41 27 -53 70 -53 195 0 129 15 168 73 193 39 17 401 21 459 5z m-482 -500 c0 -38 -9 -60 -25 -60 -25 0 -35 76 -13 98 17 17 38 -4 38 -38z m120 -9 c0 -10 -6 -26 -14 -36 -12 -16 -16 -17 -30 -6 -19 16 -21 72 -3 90 10 10 15 8 30 -10 9 -11 17 -29 17 -38z m220 5 c0 -40 -14 -61 -34 -53 -24 10 -31 53 -11 83 13 20 19 23 31 13 8 -6 14 -26 14 -43z m115 14 c8 -24 -11 -70 -29 -70 -16 0 -26 21 -26 59 0 52 39 60 55 11z m-231 14 c18 -48 -9 -99 -39 -74 -27 23 -16 90 15 90 10 0 21 -7 24 -16z m340 0 c10 -25 7 -49 -8 -69 -12 -16 -16 -17 -30 -6 -28 24 -18 91 14 91 10 0 21 -7 24 -16z"/>
<path d="M1270 1320 c124 -3 219 -7 213 -8 -10 -1 -13 -42 -13 -162 l0 -160 29 0 c24 0 31 6 40 31 14 41 14 207 0 247 -20 59 -35 62 -276 60 l-218 -2 225 -6z"/>
<path d="M1006 1288 c-12 -17 -16 -50 -16 -141 0 -130 8 -157 45 -157 l25 0 0 160 c0 152 -1 160 -19 160 -11 0 -27 -10 -35 -22z"/>
<path d="M1230 1150 l0 -160 40 0 c31 0 40 4 40 18 0 15 9 17 75 14 47 -2 75 0 75 7 0 6 -33 12 -77 14 l-78 3 78 2 c47 1 77 6 77 13 0 7 -26 9 -75 7 l-75 -3 0 123 0 122 -40 0 -40 0 0 -160z"/>
<path d="M1070 1270 c0 -5 33 -11 73 -13 l72 -3 -72 -2 c-97 -3 -95 -22 2 -22 73 0 75 1 75 25 0 24 -2 25 -75 25 -41 0 -75 -4 -75 -10z"/>
<path d="M787 1033 c-13 -12 -8 -238 5 -251 7 -7 27 -12 44 -12 51 0 64 27 64 138 0 117 -7 132 -64 132 -23 0 -46 -3 -49 -7z"/>
<path d="M1651 1021 c-6 -11 -11 -64 -11 -119 0 -111 11 -132 67 -132 49 0 54 15 51 146 l-3 119 -47 3 c-38 2 -49 -1 -57 -17z"/>
<path d="M356 1011 c-14 -16 -18 -37 -18 -94 0 -41 5 -83 11 -95 13 -24 43 -36 71 -27 51 16 73 149 33 203 -26 35 -72 41 -97 13z"/>
<path d="M2092 1005 c-56 -71 -21 -215 52 -215 41 0 63 40 65 118 1 56 -3 74 -20 95 -27 35 -70 36 -97 2z"/>
<path d="M141 1006 c-22 -12 -21 -13 30 -20 30 -4 74 -16 98 -27 52 -23 60 -19 37 16 -29 44 -113 60 -165 31z"/>
<path d="M2273 1008 c-25 -12 -31 -34 -11 -40 6 -2 34 2 62 9 28 7 62 13 76 13 l25 1 -25 14 c-29 17 -95 18 -127 3z"/>
<path d="M265 859 c-22 -10 -64 -19 -93 -21 -60 -3 -66 -11 -21 -27 64 -22 136 -5 159 38 14 28 1 31 -45 10z"/>
<path d="M2237 864 c-20 -21 41 -64 91 -64 32 0 92 18 92 28 0 4 -23 8 -52 10 -28 2 -67 10 -86 18 -40 16 -37 16 -45 8z"/>
<path d="M1002 528 c4 -206 12 -235 76 -301 132 -137 344 -103 432 69 23 46 25 60 28 232 l4 182 -61 0 -61 0 0 -80 c0 -70 2 -81 21 -90 50 -28 62 -142 18 -189 -28 -30 -72 -28 -98 5 -12 15 -21 33 -21 40 0 11 -18 14 -70 14 -52 0 -70 -3 -70 -14 0 -7 -9 -25 -21 -40 -25 -32 -70 -35 -98 -7 -44 44 -35 155 14 187 23 15 25 22 25 95 l0 79 -61 0 -61 0 4 -182z"/>
<path d="M1140 625 c0 -50 4 -85 10 -85 6 0 10 35 10 85 0 50 -4 85 -10 85 -6 0 -10 -35 -10 -85z"/>
<path d="M1380 624 c0 -64 3 -85 13 -82 8 3 13 32 15 86 2 68 0 82 -13 82 -12 0 -15 -15 -15 -86z"/>
<path d="M1180 553 c0 -10 8 -44 17 -75 l18 -58 58 0 c53 0 57 2 57 23 0 12 9 39 20 60 35 64 32 67 -75 67 -84 0 -95 -2 -95 -17z"/>
<path d="M1093 516 c-52 -45 -28 -176 32 -176 54 0 84 94 50 159 -20 39 -50 45 -82 17z"/>
<path d="M1392 533 c-42 -17 -55 -123 -21 -167 55 -70 134 25 95 117 -12 29 -44 60 -58 56 -2 0 -9 -3 -16 -6z"/>
</g>
<g id="layer107" fill="#aba025" stroke="none">
<path d="M1095 516 c-34 -34 -41 -86 -19 -133 35 -70 100 -49 111 36 7 50 -11 95 -43 110 -21 9 -28 8 -49 -13z"/>
<path d="M1394 528 c-46 -21 -60 -115 -23 -162 43 -54 100 -16 101 68 2 70 -35 114 -78 94z"/>
</g>
<g id="layer108" fill="#7e7e7e" stroke="none">
<path d="M901 1851 c-19 -12 -7 -68 22 -102 88 -105 257 -61 274 71 l6 40 -144 0 c-79 0 -150 -4 -158 -9z"/>
<path d="M1326 1852 c-11 -18 17 -87 48 -118 36 -36 86 -50 141 -40 64 12 121 82 113 138 -3 23 -4 23 -150 26 -80 1 -149 -1 -152 -6z"/>
<path d="M1390 1460 c0 -5 18 -10 40 -10 22 0 40 5 40 10 0 6 -18 10 -40 10 -22 0 -40 -4 -40 -10z"/>
<path d="M990 1423 c-8 -3 -25 -15 -37 -26 -23 -20 -23 -22 -23 -313 l0 -293 24 -28 24 -28 249 -3 c284 -4 326 0 359 33 l24 24 0 290 0 290 -24 28 -24 28 -279 2 c-153 1 -285 -1 -293 -4z m551 -101 l29 -32 0 -143 c0 -218 1 -217 -303 -217 -206 0 -215 1 -248 23 -52 35 -59 58 -59 195 0 135 9 164 59 195 23 15 56 17 259 15 l234 -3 29 -33z m-530 -449 c14 -37 0 -78 -26 -78 -16 0 -21 8 -23 39 -2 21 -1 44 2 52 9 23 36 16 47 -13z m109 8 c15 -28 12 -67 -5 -81 -36 -30 -69 32 -40 76 19 29 31 30 45 5z m108 7 c25 -25 12 -98 -18 -98 -20 0 -30 19 -30 59 0 25 15 51 30 51 3 0 11 -5 18 -12z m109 4 c21 -13 26 -65 9 -87 -31 -42 -73 25 -46 75 12 22 18 24 37 12z m123 -11 c15 -28 12 -67 -5 -81 -34 -28 -65 21 -46 73 12 32 36 35 51 8z m108 7 c25 -25 12 -98 -18 -98 -20 0 -30 19 -30 59 0 25 15 51 30 51 3 0 11 -5 18 -12z"/>
<path d="M792 1028 c-19 -19 -17 -222 4 -242 19 -19 54 -21 77 -3 15 11 17 28 15 132 l-3 120 -40 3 c-23 2 -46 -3 -53 -10z"/>
<path d="M1657 1033 c-4 -3 -7 -59 -7 -124 0 -107 2 -119 19 -129 28 -14 57 -12 75 6 20 20 23 223 4 242 -13 13 -80 17 -91 5z"/>
<path d="M360 1010 c-35 -35 -31 -162 6 -200 23 -24 26 -24 52 -10 40 23 53 57 49 122 -5 91 -60 135 -107 88z"/>
<path d="M2096 999 c-44 -52 -34 -160 18 -194 30 -20 61 -13 77 17 6 11 11 55 11 97 -1 66 -4 78 -22 93 -32 26 -55 22 -84 -13z"/>
<path d="M165 1013 c-37 -9 -40 -23 -4 -23 18 -1 59 -9 89 -20 30 -10 56 -17 58 -15 2 2 -1 12 -7 24 -16 30 -84 46 -136 34z"/>
<path d="M2290 1011 c-30 -8 -34 -37 -5 -34 66 5 125 17 118 24 -12 12 -85 19 -113 10z"/>
<path d="M245 848 c-27 -9 -63 -17 -79 -18 -23 0 -27 -3 -18 -12 6 -6 35 -12 62 -12 41 0 56 5 76 26 34 33 21 38 -41 16z"/>
<path d="M2254 848 c-4 -5 1 -17 10 -26 19 -19 110 -22 128 -4 9 9 6 12 -13 12 -14 0 -47 6 -72 14 -31 9 -49 11 -53 4z"/>
<path d="M1002 528 c3 -167 5 -187 26 -230 44 -89 149 -158 242 -158 91 0 185 61 235 151 29 53 30 57 33 237 l4 182 -61 0 -61 0 0 -79 c0 -72 2 -80 24 -94 47 -31 58 -127 21 -183 -22 -34 -76 -33 -104 2 -12 15 -21 33 -21 40 0 11 -18 14 -70 14 -52 0 -70 -3 -70 -14 0 -7 -9 -25 -21 -40 -15 -19 -30 -26 -54 -26 -48 0 -70 36 -70 113 0 55 3 61 33 86 31 27 32 30 32 104 l0 77 -61 0 -61 0 4 -182z"/>
<path d="M1140 631 c0 -44 5 -83 10 -86 6 -4 10 25 10 79 0 51 -4 86 -10 86 -6 0 -10 -33 -10 -79z"/>
<path d="M1180 650 l0 -60 95 0 95 0 0 60 0 60 -95 0 -95 0 0 -60z"/>
<path d="M1380 625 c0 -71 2 -83 15 -79 12 5 15 24 15 85 0 64 -3 79 -15 79 -12 0 -15 -16 -15 -85z"/>
<path d="M1180 558 c0 -7 8 -39 17 -70 l18 -58 58 0 c52 0 57 2 57 23 1 12 7 33 15 47 8 14 14 35 15 48 0 21 -3 22 -90 22 -65 0 -90 -3 -90 -12z"/>
</g>
<g id="layer109" fill="#669393" stroke="none">
<path d="M1070 1300 c0 -6 32 -10 75 -10 43 0 75 4 75 10 0 6 -32 10 -75 10 -43 0 -75 -4 -75 -10z"/>
<path d="M1070 1270 c0 -6 32 -10 75 -10 43 0 75 4 75 10 0 6 -32 10 -75 10 -43 0 -75 -4 -75 -10z"/>
<path d="M1070 1240 c0 -6 32 -10 75 -10 43 0 75 4 75 10 0 6 -32 10 -75 10 -43 0 -75 -4 -75 -10z"/>
<path d="M1320 1240 c0 -6 30 -10 70 -10 40 0 70 4 70 10 0 6 -30 10 -70 10 -40 0 -70 -4 -70 -10z"/>
<path d="M1070 1210 c0 -6 32 -10 75 -10 43 0 75 4 75 10 0 6 -32 10 -75 10 -43 0 -75 -4 -75 -10z"/>
<path d="M1070 1180 c0 -6 32 -10 75 -10 43 0 75 4 75 10 0 6 -32 10 -75 10 -43 0 -75 -4 -75 -10z"/>
<path d="M1070 1150 c0 -6 32 -10 75 -10 43 0 75 4 75 10 0 6 -32 10 -75 10 -43 0 -75 -4 -75 -10z"/>
<path d="M1070 1120 c0 -6 32 -10 75 -10 43 0 75 4 75 10 0 6 -32 10 -75 10 -43 0 -75 -4 -75 -10z"/>
<path d="M1320 1120 c0 -6 30 -10 70 -10 40 0 70 4 70 10 0 6 -30 10 -70 10 -40 0 -70 -4 -70 -10z"/>
<path d="M1070 1090 c0 -6 32 -10 75 -10 43 0 75 4 75 10 0 6 -32 10 -75 10 -43 0 -75 -4 -75 -10z"/>
<path d="M1070 1060 c0 -6 32 -10 75 -10 43 0 75 4 75 10 0 6 -32 10 -75 10 -43 0 -75 -4 -75 -10z"/>
<path d="M1315 1060 c-4 -6 22 -10 69 -10 44 0 76 4 76 10 0 6 -30 10 -69 10 -39 0 -73 -4 -76 -10z"/>
<path d="M1070 1030 c0 -6 32 -10 75 -10 43 0 75 4 75 10 0 6 -32 10 -75 10 -43 0 -75 -4 -75 -10z"/>
<path d="M1320 1030 c0 -6 30 -10 70 -10 40 0 70 4 70 10 0 6 -30 10 -70 10 -40 0 -70 -4 -70 -10z"/>
<path d="M1070 1000 c0 -6 32 -10 75 -10 43 0 75 4 75 10 0 6 -32 10 -75 10 -43 0 -75 -4 -75 -10z"/>
<path d="M1040 970 c8 -5 106 -10 225 -10 119 0 217 5 225 10 10 6 -66 10 -225 10 -159 0 -235 -4 -225 -10z"/>
<path d="M1000 566 c0 -79 3 -164 6 -190 9 -61 58 -142 111 -182 127 -96 317 -48 387 99 28 60 28 60 27 265 l-1 152 -55 0 -55 0 0 -76 c0 -71 2 -78 29 -103 38 -35 49 -91 30 -145 -26 -76 -98 -82 -132 -10 -16 33 -18 34 -79 34 -61 0 -63 -1 -78 -33 -46 -99 -146 -46 -137 72 3 46 9 59 35 83 31 26 32 31 32 103 l0 75 -60 0 -60 0 0 -144z"/>
<path d="M1180 650 l0 -60 95 0 96 0 -3 58 -3 57 -92 3 -93 3 0 -61z"/>
</g>
<g id="layer110" fill="#57b2b3" stroke="none">
<path d="M1158 1323 c61 -2 163 -2 225 0 61 1 11 3 -113 3 -124 0 -174 -2 -112 -3z"/>
<path d="M1070 1300 c0 -6 30 -10 70 -10 40 0 70 4 70 10 0 6 -30 10 -70 10 -40 0 -70 -4 -70 -10z"/>
<path d="M1320 1300 c0 -6 30 -10 70 -10 40 0 70 4 70 10 0 6 -30 10 -70 10 -40 0 -70 -4 -70 -10z"/>
<path d="M1070 1270 c0 -6 32 -10 76 -10 47 0 73 4 69 10 -3 6 -37 10 -76 10 -39 0 -69 -4 -69 -10z"/>
<path d="M1320 1270 c0 -6 30 -10 70 -10 40 0 70 4 70 10 0 6 -30 10 -70 10 -40 0 -70 -4 -70 -10z"/>
<path d="M1108 1233 c23 -2 59 -2 80 0 20 2 1 4 -43 4 -44 0 -61 -2 -37 -4z"/>
<path d="M1353 1233 c20 -2 54 -2 75 0 20 2 3 4 -38 4 -41 0 -58 -2 -37 -4z"/>
<path d="M1070 1210 c0 -6 30 -10 70 -10 40 0 70 4 70 10 0 6 -30 10 -70 10 -40 0 -70 -4 -70 -10z"/>
<path d="M1320 1210 c0 -6 30 -10 70 -10 40 0 70 4 70 10 0 6 -30 10 -70 10 -40 0 -70 -4 -70 -10z"/>
<path d="M1070 1180 c0 -6 30 -10 70 -10 40 0 70 4 70 10 0 6 -30 10 -70 10 -40 0 -70 -4 -70 -10z"/>
<path d="M1320 1180 c0 -6 30 -10 70 -10 40 0 70 4 70 10 0 6 -30 10 -70 10 -40 0 -70 -4 -70 -10z"/>
<path d="M1070 1150 c0 -6 32 -10 76 -10 47 0 73 4 69 10 -3 6 -37 10 -76 10 -39 0 -69 -4 -69 -10z"/>
<path d="M1320 1150 c0 -6 30 -10 70 -10 40 0 70 4 70 10 0 6 -30 10 -70 10 -40 0 -70 -4 -70 -10z"/>
<path d="M1103 1113 c20 -2 54 -2 75 0 20 2 3 4 -38 4 -41 0 -58 -2 -37 -4z"/>
<path d="M1353 1113 c20 -2 54 -2 75 0 20 2 3 4 -38 4 -41 0 -58 -2 -37 -4z"/>
<path d="M1070 1090 c0 -6 30 -10 70 -10 40 0 70 4 70 10 0 6 -30 10 -70 10 -40 0 -70 -4 -70 -10z"/>
<path d="M1320 1090 c0 -6 30 -10 70 -10 40 0 70 4 70 10 0 6 -30 10 -70 10 -40 0 -70 -4 -70 -10z"/>
<path d="M1070 1060 c0 -6 32 -10 76 -10 47 0 73 4 69 10 -3 6 -37 10 -76 10 -39 0 -69 -4 -69 -10z"/>
<path d="M1320 1060 c0 -6 30 -10 70 -10 40 0 70 4 70 10 0 6 -30 10 -70 10 -40 0 -70 -4 -70 -10z"/>
<path d="M1103 1023 c20 -2 54 -2 75 0 20 2 3 4 -38 4 -41 0 -58 -2 -37 -4z"/>
<path d="M1353 1023 c20 -2 54 -2 75 0 20 2 3 4 -38 4 -41 0 -58 -2 -37 -4z"/>
<path d="M1070 1000 c0 -6 30 -10 70 -10 40 0 70 4 70 10 0 6 -30 10 -70 10 -40 0 -70 -4 -70 -10z"/>
<path d="M1320 1000 c0 -6 30 -10 70 -10 40 0 70 4 70 10 0 6 -30 10 -70 10 -40 0 -70 -4 -70 -10z"/>
<path d="M1055 970 c11 -5 108 -9 215 -9 107 0 204 4 215 9 12 5 -75 9 -215 9 -140 0 -227 -4 -215 -9z"/>
<path d="M1002 533 c5 -194 14 -231 73 -301 97 -115 301 -111 395 8 52 66 60 104 60 296 l0 174 -55 0 -55 0 0 -75 c0 -72 1 -77 31 -103 56 -50 49 -170 -12 -203 -31 -16 -74 6 -94 47 -16 33 -17 34 -78 34 -62 0 -63 0 -75 -34 -17 -46 -61 -65 -97 -42 -14 10 -30 28 -35 42 -24 63 -2 156 40 169 18 6 20 15 20 86 l0 79 -61 0 -61 0 4 -177z"/>
<path d="M1180 650 l0 -60 94 0 94 0 -1 58 -2 57 -92 3 -93 3 0 -61z"/>
</g>
<g id="layer111" fill="#fce908" stroke="none">
<path d="M1104 522 c-38 -25 -46 -114 -13 -156 26 -33 39 -33 70 0 56 60 6 198 -57 156z"/>
<path d="M1377 512 c-40 -43 -28 -143 19 -164 21 -10 28 -8 45 8 22 23 35 80 25 118 -13 53 -58 72 -89 38z"/>
</g>
<g id="layer112" fill="#b9e9e8" stroke="none">
<path d="M1010 538 c0 -95 5 -190 10 -210 28 -101 138 -180 248 -179 108 0 191 55 238 156 22 46 24 63 24 228 l0 178 -52 -3 -53 -3 -3 -77 c-3 -70 -1 -77 18 -83 27 -9 50 -55 50 -104 0 -54 -14 -87 -45 -107 -36 -24 -73 -9 -98 39 -19 36 -20 37 -78 37 -54 0 -60 -2 -69 -24 -12 -32 -49 -66 -73 -66 -10 0 -32 13 -48 29 -24 25 -29 37 -29 81 0 58 21 106 50 115 18 6 20 15 20 86 l0 79 -55 0 -55 0 0 -172z"/>
<path d="M1140 630 c0 -47 4 -80 10 -80 6 0 10 33 10 80 0 47 -4 80 -10 80 -6 0 -10 -33 -10 -80z"/>
<path d="M1180 650 l0 -60 90 0 90 0 0 60 0 60 -90 0 -90 0 0 -60z"/>
<path d="M1388 630 c-2 -44 0 -80 5 -80 4 0 7 36 7 80 0 44 -2 80 -4 80 -3 0 -6 -36 -8 -80z"/>
</g>


</svg>